<svg height="120" viewBox="0 0 56 56" width="100" xmlns="http://www.w3.org/2000/svg"><g id="Page-1" fill="none" fill-rule="evenodd"><g id="006---Illegal-Downloads" fill="#fff" fill-rule="nonzero"><path id="Shape" d="m41 24c-.0060956 4.4717704-2.3100952 8.6265238-6.1 11h10.1v-22h-10.1c3.7899048 2.3734762 6.0939044 6.5282296 6.1 11z"/><path id="Shape" d="m26.23 27 4.77-2.93v-.14l-4.77-2.93c-.029382-.0086113-.060618-.0086113-.09 0h-.09l-.05.07v5.82c.08.11.15.11.23.11z"/><path id="Shape" d="m15 24c.0060956-4.4717704 2.3100952-8.6265238 6.1-11h-10.1v22h10.1c-3.7899048-2.3734762-6.0939044-6.5282296-6.1-11z"/><path id="Shape" d="m17 24c0 6.0751322 4.9248678 11 11 11s11-4.9248678 11-11-4.9248678-11-11-11-11 4.9248678-11 11zm7-2.91c-.0129175-.759468.4054995-1.460704 1.08-1.81.6789821-.3992871 1.5210179-.3992871 2.2 0l4.72 2.95c.6187794.3752224.9966874 1.0463428.9966874 1.77s-.377908 1.3947776-.9966874 1.77l-4.72 2.91c-.3442216.2074451-.738107.3180094-1.14.32-.3718933.0021736-.7376933-.0944528-1.06-.28-.6745005-.349296-1.0929175-1.050532-1.08-1.81z"/><path id="Shape" d="m51 34v-3h-4v4h3c.5522847 0 1-.4477153 1-1z"/><path id="Shape" d="m9 13h-3c-.55228475 0-1 .4477153-1 1v3h4z"/><path id="Shape" d="m51 14c0-.5522847-.4477153-1-1-1h-3v4h4z"/><path id="Rectangle-path" d="m47 19h4v4h-4z"/><path id="Shape" d="m31 47v-5h-6v5c0 .5522847-.4477153 1-1 1h-2.75l6.75 7.51 6.75-7.51h-2.75c-.5522847 0-1-.4477153-1-1z"/><path id="Rectangle-path" d="m47 25h4v4h-4z"/><path id="Rectangle-path" d="m5 19h4v4h-4z"/><path id="Shape" d="m55 0h-54c-.55228475 0-1 .44771525-1 1v5h56v-5c0-.55228475-.4477153-1-1-1zm-52 4c-.55228475 0-1-.44771525-1-1s.44771525-1 1-1 1 .44771525 1 1-.44771525 1-1 1zm4 0c-.55228475 0-1-.44771525-1-1s.44771525-1 1-1 1 .44771525 1 1-.44771525 1-1 1zm4 0c-.5522847 0-1-.44771525-1-1s.4477153-1 1-1 1 .44771525 1 1-.4477153 1-1 1zm42 0h-6c-.5522847 0-1-.44771525-1-1s.4477153-1 1-1h6c.5522847 0 1 .44771525 1 1s-.4477153 1-1 1z"/><path id="Shape" d="m0 45c0 1.6568542 1.34314575 3 3 3h16.26c-.0060383-.2784082.0485572-.5547979.16-.81.3206693-.7239346 1.0382236-1.190541 1.83-1.19h1.75v-4c0-1.1045695.8954305-2 2-2h6c1.1045695 0 2 .8954305 2 2v4h1.75c.7917764-.000541 1.5093307.4660654 1.83 1.19.1114428.2552021.1660383.5315918.16.81h16.26c1.6568542 0 3-1.3431458 3-3v-37h-56zm3-31c0-1.6568542 1.34314575-3 3-3h44c1.6568542 0 3 1.3431458 3 3v20c0 1.6568542-1.3431458 3-3 3h-44c-1.65685425 0-3-1.3431458-3-3z"/><path id="Shape" d="m6 35h3v-4h-4v3c0 .5522847.44771525 1 1 1z"/><path id="Rectangle-path" d="m5 25h4v4h-4z"/></g></g></svg>
