<svg height="512" viewBox="0 0 60 60" width="512" xmlns="http://www.w3.org/2000/svg"><g id="Page-1" fill="#000" fill-rule="evenodd"><g id="006---Illegal-Downloads" fill="#fff" fill-rule="nonzero"><path id="Shape" d="m57 0h-54c-1.65685425 0-3 1.34314575-3 3v44c0 2.7614237 2.23857625 5 5 5h17.35l6.16 6.84c.3796661.4305009.9259988.6771243 1.5.6771243s1.1203339-.2466234 1.5-.6771243l6.14-6.84h17.35c2.7614237 0 5-2.2385763 5-5v-44c0-1.65685425-1.3431458-3-3-3zm-55 3c0-.55228475.44771525-1 1-1h54c.5522847 0 1 .44771525 1 1v5h-56zm28 54.51-6.75-7.51h2.75c.5522847 0 1-.4477153 1-1v-5h6v5c0 .5522847.4477153 1 1 1h2.75zm28-10.51c0 1.6568542-1.3431458 3-3 3h-16.26c.0060383-.2784082-.0485572-.5547979-.16-.81-.3206693-.7239346-1.0382236-1.190541-1.83-1.19h-1.75v-4c0-1.1045695-.8954305-2-2-2h-6c-1.1045695 0-2 .8954305-2 2v4h-1.75c-.7917764-.000541-1.5093307.4660654-1.83 1.19-.1114428.2552021-.1660383.5315918-.16.81h-16.26c-1.65685425 0-3-1.3431458-3-3v-37h56z"/><circle id="Oval" cx="5" cy="5" r="1"/><circle id="Oval" cx="9" cy="5" r="1"/><circle id="Oval" cx="13" cy="5" r="1"/><path id="Shape" d="m55 4h-6c-.5522847 0-1 .44771525-1 1s.4477153 1 1 1h6c.5522847 0 1-.44771525 1-1s-.4477153-1-1-1z"/><path id="Shape" d="m34 24.23-4.72-2.91c-.6789821-.3992871-1.5210179-.3992871-2.2 0-.6616088.3427526-1.0778234 1.024882-1.08 1.77v5.82c-.0129175.759468.4054995 1.460704 1.08 1.81.3223067.1855472.6881067.2821736 1.06.28.401893-.0019906.7957784-.1125549 1.14-.32l4.72-2.91c.6187794-.3752224.9966874-1.0463428.9966874-1.77s-.377908-1.3947776-.9966874-1.77zm-1 1.84-4.77 2.93c-.08.05-.15 0-.23-.06v-5.85l.05-.07h.09c.029382-.0086113.060618-.0086113.09 0l4.77 2.91.53-.85z"/><path id="Shape" d="m8 39h44c1.6568542 0 3-1.3431458 3-3v-20c0-1.6568542-1.3431458-3-3-3h-44c-1.65685425 0-3 1.3431458-3 3v20c0 1.6568542 1.34314575 3 3 3zm3-8h-4v-4h4zm0-6h-4v-4h4zm-4 11v-3h4v4h-3c-.55228475 0-1-.4477153-1-1zm42-9h4v4h-4zm4-2h-4v-4h4zm-1 12h-3v-4h4v3c0 .5522847-.4477153 1-1 1zm1-21v3h-4v-4h3c.5522847 0 1 .4477153 1 1zm-6-1v22h-10.1c3.7791174-2.3802266 6.0717968-6.5337704 6.0717968-11s-2.2926794-8.6197734-6.0717968-11zm-17 22c-6.0751322 0-11-4.9248678-11-11s4.9248678-11 11-11 11 4.9248678 11 11-4.9248678 11-11 11zm-13-11c.0060956 4.4717704 2.3100952 8.6265238 6.1 11h-10.1v-22h10.1c-3.7899048 2.3734762-6.0939044 6.5282296-6.1 11zm-9-11h3v4h-4v-3c0-.5522847.44771525-1 1-1z"/></g></g></svg>
